<?xml version="1.0" standalone="no"?>
<!DOCTYPE svg PUBLIC "-//W3C//DTD SVG 20010904//EN"
 "http://www.w3.org/TR/2001/REC-SVG-20010904/DTD/svg10.dtd">
<svg version="1.0" xmlns="http://www.w3.org/2000/svg"
 width="72.000000pt" height="72.000000pt" viewBox="0 0 72.000000 72.000000"
 preserveAspectRatio="xMidYMid meet">
<metadata>
Created by potrace 1.11, written by Peter Selinger 2001-2013
</metadata>
<g transform="translate(0.000000,72.000000) scale(0.100000,-0.100000)"
fill="#000000" stroke="none">
<path d="M285 703 c-98 -24 -191 -101 -232 -190 -49 -107 -38 -257 25 -337
l19 -24 24 30 c13 16 32 39 41 50 15 18 16 22 2 43 -24 37 -25 134 -2 183 33
70 112 132 167 132 12 0 21 6 21 13 0 8 3 8 9 -2 5 -8 18 -12 30 -8 12 3 24 1
27 -4 12 -20 41 -7 76 33 33 38 35 43 20 54 -41 28 -162 43 -227 27z"/>
<path d="M585 535 l-37 -44 17 -51 c57 -172 -103 -340 -272 -286 -17 5 -28 -2
-57 -37 -20 -24 -36 -46 -36 -49 0 -13 86 -39 141 -43 226 -16 406 197 355
419 -13 53 -54 136 -67 136 -4 0 -24 -20 -44 -45z"/>
<path d="M295 472 c-11 -10 -15 -11 -10 -3 5 9 4 12 -3 7 -7 -4 -12 -16 -12
-26 0 -10 -4 -20 -10 -22 -15 -5 8 -79 33 -106 56 -61 177 -67 177 -10 0 7
-27 42 -60 78 -33 35 -60 67 -60 72 0 4 -8 12 -18 17 -14 7 -23 6 -37 -7z
m119 -117 c3 -8 1 -15 -5 -15 -6 0 -7 -6 -4 -12 4 -7 -1 -4 -9 6 -9 11 -16 23
-16 28 0 14 28 9 34 -7z"/>
</g>
</svg>
