<?xml version="1.0" encoding="utf-8"?>
<!-- Generator: Adobe Illustrator 15.0.0, SVG Export Plug-In . SVG Version: 6.00 Build 0)  -->
<!DOCTYPE svg PUBLIC "-//W3C//DTD SVG 1.1//EN" "http://www.w3.org/Graphics/SVG/1.1/DTD/svg11.dtd">
<svg version="1.1" id="Layer_1" xmlns="http://www.w3.org/2000/svg" xmlns:xlink="http://www.w3.org/1999/xlink" x="0px" y="0px"
	 width="250px" height="31px" viewBox="0 0 250 31" enable-background="new 0 0 250 31" xml:space="preserve">
<g id="Layer_2">
</g>
<g>
	<path fill="#22405F" d="M129.52,0.35h-9.355L115.2,7.546h-0.142l-4.966-7.196h-9.354l-3.629,22.415
		c1.006,0.264,1.925,0.802,2.595,1.562c0.792,0.902,1.265,2.163,1.265,3.371c0,0.84-0.237,1.694-0.637,2.447h4.309l2.217-13.98
		c0.045-0.581,0.045-1.743,0.045-2.323h0.312c0.046,1.25,0.269,2.188,0.582,3.261l1.97,4.987l1.764-1.764l1.763,1.763l1.762-1.762
		l1.765,1.764l1.761-1.763l1.764,1.763l0.253-0.253l1.87-4.735c0.313-1.072,0.535-2.011,0.582-3.261h0.312
		c0,0.58,0,1.742,0.046,2.323l2.217,13.98h8.726L129.52,0.35z"/>
	<path fill="#F03B5D" d="M19.115,27.489c-1.683,1.714-4.431,3.161-8.183,3.161c-3.753,0-6.5-1.447-8.186-3.161
		C1.211,25.924,0,23.5,0,20.339c0-3.132,1.211-5.555,2.747-7.122c1.685-1.713,4.432-3.159,8.186-3.159
		c3.752,0,6.5,1.446,8.183,3.159c1.538,1.567,2.75,3.99,2.75,7.122C21.865,23.5,20.653,25.924,19.115,27.489z M8.361,17.414
		c-0.709,0.738-1.122,1.891-1.122,2.953c0,1.124,0.413,2.217,1.122,2.926c0.591,0.591,1.478,1.004,2.571,1.004
		c1.093,0,1.979-0.413,2.57-1.004c0.649-0.648,1.123-1.684,1.123-2.926c0-1.24-0.413-2.273-1.123-2.953
		c-0.532-0.532-1.39-1.006-2.57-1.006C9.661,16.408,8.833,16.91,8.361,17.414z"/>
	<path fill="#F03B5D" d="M23.953,30.207V10.499h13.148v5.614h-5.998v2.01h5.26v5.199h-5.26v6.885H23.953z"/>
	<path fill="#F03B5D" d="M39.968,30.207V10.499h13.149v5.614h-5.998v2.01h5.259v5.199h-5.259v6.885H39.968z"/>
	<path fill="#F03B5D" d="M55.983,30.207V10.499h13.296v5.407h-6.146v1.832h5.584v5.17h-5.584V24.8h6.323v5.407H55.983L55.983,30.207
		z"/>
	<path fill="#F03B5D" d="M72.53,30.207V10.499h8.893c2.069,0,4.227,0.236,6.028,2.039c1.006,1.004,1.861,2.512,1.861,4.846
		c0,1.743-0.531,2.837-1.092,3.517c-0.591,0.738-1.567,1.33-2.719,1.566v0.178c0.383,0.205,0.768,0.502,1.034,0.914l4.431,6.648
		h-8.243l-2.837-5.762c-0.088-0.207-0.177-0.297-0.266-0.619l-0.117,0.058v6.323H72.53z M79.504,19.275h0.827
		c0.413,0,1.063-0.062,1.506-0.443c0.236-0.207,0.503-0.591,0.503-1.212c0-0.442-0.118-0.886-0.384-1.181
		c-0.236-0.269-0.621-0.533-1.212-0.533h-1.24V19.275z"/>
	<path fill="#22405F" d="M153.509,27.489c-1.684,1.714-4.431,3.161-8.185,3.161c-3.752,0-6.499-1.447-8.186-3.161
		c-1.535-1.565-2.746-3.989-2.746-7.15c0-3.132,1.211-5.555,2.746-7.122c1.687-1.713,4.434-3.159,8.186-3.159
		c3.754,0,6.501,1.446,8.185,3.159c1.537,1.567,2.749,3.99,2.749,7.122C156.258,23.5,155.046,25.924,153.509,27.489z
		 M142.755,17.414c-0.709,0.738-1.123,1.891-1.123,2.953c0,1.124,0.414,2.217,1.123,2.926c0.591,0.591,1.478,1.004,2.569,1.004
		c1.095,0,1.98-0.413,2.572-1.004c0.648-0.648,1.123-1.684,1.123-2.926c0-1.24-0.414-2.273-1.123-2.953
		c-0.532-0.532-1.39-1.006-2.572-1.006C144.057,16.408,143.229,16.91,142.755,17.414z"/>
	<path fill="#22405F" d="M157.975,30.207V10.499h6.825l4.58,7.446c0.739,1.182,1.212,1.949,1.862,3.486h0.206
		c-0.296-1.242-0.619-3.222-0.619-4.668v-6.265h6.854v19.708h-6.854l-4.906-7.771c-0.442-0.709-0.975-1.742-1.358-2.57h-0.207
		c0.207,1.064,0.442,2.749,0.442,3.635v6.707H157.975z"/>
	<path fill="#22405F" d="M193.889,16.793c-0.855-0.59-2.423-1.477-4.019-1.477c-0.384,0-0.976,0.059-1.358,0.354
		c-0.267,0.208-0.354,0.414-0.354,0.71c0,0.413,0.06,0.798,1.151,1.034l2.275,0.502c1.743,0.383,2.777,1.094,3.368,1.684
		c1.241,1.213,1.507,2.719,1.507,3.9c0,1.686-0.441,3.251-1.771,4.641c-1.123,1.15-3.25,2.51-6.944,2.51
		c-3.013,0-5.022-0.855-6.705-1.534l-0.649-0.267l2.155-5.557l0.769,0.591c0.737,0.563,2.246,1.449,3.988,1.449
		c0.977,0,1.389-0.237,1.536-0.354c0.325-0.268,0.384-0.593,0.384-0.888c0-0.177-0.027-0.472-0.234-0.68
		c-0.236-0.235-0.62-0.324-1.359-0.474l-1.742-0.323c-1.124-0.208-2.336-0.563-3.429-1.685c-1.004-1.035-1.417-2.218-1.417-3.636
		c0-1.831,0.619-3.397,1.919-4.696c1.508-1.537,3.724-2.541,6.854-2.541c1.566,0,3.604,0.265,5.998,1.714L193.889,16.793z"/>
	<path fill="#22405F" d="M201.779,30.207V16.734l-4.02,0.176v-6.411h15.069v6.411l-4.019-0.176v13.473H201.779z"/>
	<path fill="#22405F" d="M215.018,30.207V10.499h13.295v5.407h-6.146v1.832h5.584v5.17h-5.584V24.8h6.323v5.407H215.018
		L215.018,30.207z"/>
	<path fill="#22405F" d="M231.563,30.207V10.499h8.895c2.068,0,4.229,0.236,6.027,2.039c1.006,1.004,1.861,2.512,1.861,4.846
		c0,1.743-0.531,2.837-1.093,3.517c-0.591,0.738-1.565,1.33-2.718,1.566v0.178c0.384,0.205,0.767,0.502,1.033,0.914L250,30.207
		h-8.243l-2.836-5.762c-0.089-0.207-0.178-0.297-0.267-0.619l-0.117,0.058v6.323H231.563z M238.537,19.275h0.826
		c0.414,0,1.063-0.062,1.507-0.443c0.235-0.207,0.503-0.591,0.503-1.212c0-0.442-0.118-0.886-0.385-1.181
		c-0.235-0.269-0.62-0.533-1.211-0.533h-1.24V19.275z"/>
	<g>
		<path fill="#F03B5D" d="M108.184,8.456c-0.309,0.503-0.488,1.091-0.488,1.725c0,1.833,1.484,3.318,3.32,3.318
			c1.832,0,3.316-1.485,3.316-3.318c0-0.151-0.014-0.301-0.032-0.445L108.184,8.456z"/>
		<path fill="#22405F" d="M110.619,8.967c0.023,1.981,0.408,3.559,0.882,3.559c0.442,0,0.81-1.388,0.872-3.192L110.619,8.967z"/>
		<path fill="#FFFFFF" d="M112.031,9.671c-0.354,0-0.643,0.285-0.643,0.643c0,0.353,0.288,0.64,0.643,0.64
			c0.066,0,0.133-0.013,0.193-0.031c0.058-0.349,0.102-0.738,0.129-1.163C112.259,9.705,112.148,9.671,112.031,9.671z"/>
		<path fill="#F03B5D" d="M122.074,8.456c0.306,0.503,0.486,1.091,0.486,1.725c0,1.833-1.485,3.318-3.317,3.318
			c-1.833,0-3.319-1.485-3.319-3.318c0-0.151,0.014-0.301,0.033-0.445L122.074,8.456z"/>
		<path fill="#22405F" d="M119.641,8.967c-0.027,1.981-0.41,3.559-0.883,3.559c-0.443,0-0.813-1.388-0.876-3.192L119.641,8.967z"/>
		<path fill="#FFFFFF" d="M119.296,9.671c-0.354,0-0.64,0.285-0.64,0.643c0,0.353,0.283,0.64,0.64,0.64
			c0.068,0,0.132-0.013,0.194-0.031c0.059-0.349,0.103-0.738,0.129-1.163C119.523,9.705,119.414,9.671,119.296,9.671z"/>
	</g>
	<path fill="#F03B5D" d="M95.73,30.182c0.687,0,1.468-0.267,1.978-0.844c0.389-0.445,0.605-1.087,0.605-1.641
		c0-0.533-0.215-1.176-0.605-1.62c-0.51-0.577-1.291-0.843-1.978-0.843c-0.664,0-1.447,0.266-1.956,0.843
		c-0.391,0.444-0.606,1.087-0.606,1.62c0,0.554,0.214,1.197,0.606,1.641C94.283,29.915,95.066,30.182,95.73,30.182z"/>
</g>
</svg>
