<?xml version="1.0" encoding="utf-8"?>
<!-- Generator: Adobe Illustrator 15.0.0, SVG Export Plug-In . SVG Version: 6.00 Build 0)  -->
<!DOCTYPE svg PUBLIC "-//W3C//DTD SVG 1.1//EN" "http://www.w3.org/Graphics/SVG/1.1/DTD/svg11.dtd">
<svg version="1.1" xmlns="http://www.w3.org/2000/svg" xmlns:xlink="http://www.w3.org/1999/xlink" x="0px" y="0px" width="300px"
	 height="26px" viewBox="0 0 300 26" enable-background="new 0 0 300 26" xml:space="preserve">
<g id="Layer_2">
</g>
<g id="Layer_1">
	<g>
		<g>
			<path fill="#F03B5D" d="M7.242,17.09c-0.874-1.134-1.4-2.55-1.4-4.089c0-3.705,3.014-6.719,6.719-6.719
				c1.126,0,2.188,0.282,3.121,0.774l3.81-4.53c-1.987-1.317-4.369-2.086-6.931-2.086C5.624,0.439,0,6.063,0,13
				c0,3.339,1.306,6.372,3.432,8.622L7.242,17.09z"/>
			<path fill="#22405F" d="M21.329,4.009l-3.777,4.51c1.07,1.19,1.728,2.759,1.728,4.481c0,3.705-3.015,6.718-6.719,6.718
				c-1.299,0-2.508-0.376-3.536-1.017L5.249,23.21c2.06,1.478,4.583,2.351,7.312,2.351c6.938,0,12.562-5.624,12.562-12.561
				C25.122,9.475,23.668,6.291,21.329,4.009z"/>
		</g>
		<path fill="#F03B5D" d="M169.915,6.281c3.705,0,6.72,3.014,6.72,6.719c0,3.705-3.015,6.718-6.72,6.718
			c-3.704,0-6.718-3.014-6.718-6.718C163.197,9.295,166.211,6.281,169.915,6.281 M169.915,0.439
			c-6.937,0-12.561,5.624-12.561,12.562c0,6.937,5.624,12.561,12.561,12.561c6.938,0,12.562-5.624,12.562-12.561
			C182.477,6.063,176.853,0.439,169.915,0.439L169.915,0.439z"/>
		<g>
			<path fill="#22405F" d="M34.512,6.205v5.31h10.652v5.274H34.512v8.274h-6.826V0.93h18.927v5.274H34.512z"/>
			<path fill="#22405F" d="M55.782,6.205v5.31h10.652v5.274H55.782v8.274h-6.826V0.93h18.927v5.274H55.782z"/>
			<path fill="#22405F" d="M89.603,19.788v5.274H70.228V0.93h18.927v5.274h-12.17v4.068h10.722v5.102H76.984v4.413H89.603z"/>
			<path fill="#22405F" d="M103.081,18.65h-3.723v6.412h-6.826V0.93h11.032c2.183,0,4.079,0.362,5.688,1.086
				c1.608,0.724,2.85,1.758,3.723,3.103c0.873,1.345,1.311,2.925,1.311,4.74c0,1.747-0.408,3.27-1.225,4.568
				c-0.815,1.298-1.981,2.315-3.499,3.051l5.206,7.584h-7.309L103.081,18.65z M106.322,7.239c-0.713-0.621-1.771-0.931-3.172-0.931
				h-3.792v7.067h3.792c1.401,0,2.459-0.304,3.172-0.914c0.712-0.609,1.068-1.477,1.068-2.603
				C107.391,8.733,107.034,7.86,106.322,7.239z"/>
			<path fill="#22405F" d="M116.837,24.27c-0.759-0.735-1.138-1.666-1.138-2.792c0-1.149,0.373-2.08,1.12-2.792
				c0.747-0.712,1.684-1.068,2.81-1.068c1.149,0,2.091,0.356,2.827,1.068c0.735,0.713,1.104,1.644,1.104,2.792
				c0,1.126-0.374,2.057-1.121,2.792c-0.747,0.736-1.684,1.104-2.81,1.104C118.525,25.373,117.595,25.005,116.837,24.27z"/>
			<path fill="#F03B5D" d="M147.863,25.063l-0.069-12.79l-6.205,10.411h-3.033l-6.171-10.066v12.445h-6.31V0.93h5.619l8.481,13.928
				l8.273-13.928h5.619l0.069,24.132H147.863z"/>
			<path fill="#F03B5D" d="M209.365,0.93v24.132h-5.618l-10.653-12.859v12.859h-6.688V0.93h5.619l10.652,12.859V0.93H209.365z"/>
			<path fill="#F03B5D" d="M216.123,24.821c-1.839-0.482-3.333-1.126-4.482-1.931l2.241-5.033c1.08,0.712,2.333,1.287,3.758,1.724
				s2.827,0.655,4.206,0.655c2.62,0,3.93-0.655,3.93-1.965c0-0.689-0.374-1.201-1.12-1.534c-0.747-0.333-1.947-0.684-3.603-1.051
				c-1.815-0.391-3.333-0.811-4.551-1.258c-1.218-0.449-2.264-1.167-3.137-2.155c-0.874-0.988-1.311-2.321-1.311-3.999
				c0-1.471,0.402-2.798,1.207-3.982c0.804-1.184,2.005-2.12,3.603-2.81c1.597-0.69,3.556-1.034,5.878-1.034
				c1.586,0,3.148,0.178,4.688,0.534c1.539,0.356,2.896,0.879,4.068,1.569l-2.104,5.067c-2.299-1.241-4.527-1.861-6.688-1.861
				c-1.356,0-2.345,0.201-2.965,0.603c-0.621,0.402-0.931,0.926-0.931,1.569c0,0.644,0.367,1.126,1.103,1.448s1.919,0.655,3.551,1
				c1.839,0.391,3.361,0.81,4.568,1.258c1.206,0.448,2.252,1.161,3.137,2.138c0.885,0.978,1.327,2.304,1.327,3.982
				c0,1.448-0.402,2.758-1.206,3.93c-0.805,1.172-2.012,2.109-3.62,2.81c-1.609,0.701-3.563,1.051-5.86,1.051
				C219.857,25.545,217.962,25.304,216.123,24.821z"/>
			<path fill="#F03B5D" d="M239.565,6.343h-7.412V0.93h21.615v5.413h-7.377v18.72h-6.826V6.343z"/>
			<path fill="#F03B5D" d="M274.833,19.788v5.274h-19.374V0.93h18.926v5.274h-12.17v4.068h10.723v5.102h-10.723v4.413H274.833z"/>
			<path fill="#F03B5D" d="M288.313,18.65h-3.723v6.412h-6.826V0.93h11.031c2.184,0,4.08,0.362,5.688,1.086s2.85,1.758,3.724,3.103
				c0.873,1.345,1.31,2.925,1.31,4.74c0,1.747-0.408,3.27-1.224,4.568c-0.816,1.298-1.982,2.315-3.499,3.051L300,25.063h-7.31
				L288.313,18.65z M291.553,7.239c-0.713-0.621-1.77-0.931-3.172-0.931h-3.791v7.067h3.791c1.402,0,2.459-0.304,3.172-0.914
				c0.713-0.609,1.069-1.477,1.069-2.603C292.622,8.733,292.266,7.86,291.553,7.239z"/>
		</g>
		<g>
			<path fill="#F03B5D" d="M10.313,9.612c-0.644,0.415-1.188,0.998-1.55,1.736c-1.049,2.149-0.156,4.742,1.99,5.79
				c2.148,1.049,4.741,0.157,5.79-1.993c0.084-0.169,0.148-0.343,0.208-0.516L10.313,9.612z"/>
			<path fill="#254160" d="M13.429,12.041c-1.461,1.972-2.427,4.026-1.956,4.406c0.494,0.401,2.193-0.881,3.901-2.89L13.429,12.041z
				"/>
			<path fill="#FFFFFF" d="M14.543,13.838c-0.384-0.311-0.939-0.251-1.25,0.133c-0.308,0.38-0.252,0.938,0.132,1.248
				c0.074,0.06,0.153,0.101,0.237,0.136c0.367-0.326,0.756-0.708,1.153-1.143C14.761,14.073,14.671,13.94,14.543,13.838z"/>
		</g>
	</g>
</g>
</svg>
